<svg xmlns="http://www.w3.org/2000/svg" viewBox="0 0 560 520" role="img" aria-label="Ilustrasi pusat hemodialisis">
  <rect width="560" height="520" fill="#e9f2ff"/>
  <circle cx="430" cy="110" r="120" fill="#3e8cff" opacity=".14"/>
  <rect x="70" y="120" width="420" height="320" rx="28" fill="#fff"/>
  <rect x="110" y="170" width="150" height="220" rx="16" fill="#eef5ff"/>
  <rect x="300" y="170" width="150" height="128" rx="16" fill="#eef5ff"/>
  <rect x="300" y="318" width="150" height="72" rx="16" fill="#3e8cff"/>
  <path d="M360 336h12v12h12v12h-12v12h-12v-12h-12v-12h12z" fill="#fff"/>
  <g transform="translate(280 92)"><rect x="-40" y="-40" width="80" height="80" rx="22" fill="#3e8cff"/><path d="M0 -22v44M-22 0h44" stroke="#fff" stroke-width="12" stroke-linecap="round"/></g>
  <circle cx="150" cy="452" r="32" fill="#07306e"/>
  <path d="M60 470h60l16-30 26 60 20-44 14 18h214" fill="none" stroke="#3e8cff" stroke-width="5" stroke-linecap="round" stroke-linejoin="round"/>
</svg>
